<svg id="Laag_1" data-name="Laag 1" xmlns="http://www.w3.org/2000/svg" viewBox="0 0 675.29 512">
  <defs>
    <style>
      .cls-1 {
        fill: none;
      }

      .cls-2 {
        fill: #efefef;
      }
    </style>
  </defs>
  <title>bombaclat</title>
  <path class="cls-1" d="M0,0" transform="translate(163.29 0)"/>
  <path class="cls-2" d="M0,64s12.8,48,12.8,64S0,192,0,192s48.68-12.8,64-12.8c16.68,0,64,12.8,64,12.8s-7.78-29.29-11.18-49.74c44.09-7.64,64.39-39.33,81.1-65.46C216.23,48.19,228,32,256,32s42.47,20.26,46.6,65.69c-17.77,1.64-35.43,5-52.43,11.59A16,16,0,0,0,240,124.19V144h3.49C175.61,173.63,128,241.32,128,320c0,105.87,86.13,192,192,192s192-86.13,192-192c0-78.68-47.61-146.37-115.49-176H400V124.19a16,16,0,0,0-10.17-14.91c-17.78-7-36.27-10.35-54.87-11.82C331.65,56.75,317.44,0,256,0c-46.94,0-67.17,31.64-85,59.56-14.42,22.55-27.5,42.4-53.34,49.49,3.7-20,10.37-45,10.37-45S80.23,76.8,64,76.8C48.23,76.8,0,64,0,64Z" transform="translate(163.29 0)"/>
  <path class="cls-2" d="M-142.94,267.44-161.1,285.6a7.48,7.48,0,0,0,0,10.58,7.47,7.47,0,0,0,5.29,2.19,7.45,7.45,0,0,0,5.29-2.19l23.45-23.45a7.47,7.47,0,0,0,0-10.57l-23.45-23.45a7.48,7.48,0,0,0-10.58,0,7.47,7.47,0,0,0,0,10.57Z" transform="translate(163.29 0)"/>
</svg>
