<svg id="Laag_1" data-name="Laag 1" xmlns="http://www.w3.org/2000/svg" viewBox="0 0 487 486.47">
  <defs>
    <style>
      .cls-1 {
        fill: #efefef;
      }
    </style>
  </defs>
  <title>datatwee</title>
  <path class="cls-1" d="M69.09,192.83a7.13,7.13,0,1,0,10.08-10.09l-17.31-17.3,17.31-17.31a7.13,7.13,0,0,0-10.08-10.08L46.75,160.4a7.12,7.12,0,0,0,0,10.08Z" transform="translate(-13.01 -15.39)"/>
  <path class="cls-1" d="M139.82,165.44l-17.31,17.3a7.13,7.13,0,0,0,10.08,10.09l22.35-22.35a7.12,7.12,0,0,0,0-10.08l-22.35-22.35a7.12,7.12,0,0,0-10.07,10.08Z" transform="translate(-13.01 -15.39)"/>
  <path class="cls-1" d="M90.22,194.42a7.21,7.21,0,0,0,2.6.49,7.12,7.12,0,0,0,6.64-4.52L117,145.7a7.13,7.13,0,0,0-13.26-5.22l-17.56,44.7A7.12,7.12,0,0,0,90.22,194.42Z" transform="translate(-13.01 -15.39)"/>
  <path class="cls-1" d="M55.82,236.73h48a7.13,7.13,0,0,0,0-14.26h-48a7.13,7.13,0,0,0,0,14.26Z" transform="translate(-13.01 -15.39)"/>
  <path class="cls-1" d="M214.42,222.47H130a7.13,7.13,0,0,0,0,14.26h84.41a7.13,7.13,0,1,0,0-14.26Z" transform="translate(-13.01 -15.39)"/>
  <path class="cls-1" d="M55.82,266.79H76.27a7.13,7.13,0,1,0,0-14.26H55.82a7.13,7.13,0,1,0,0,14.26Z" transform="translate(-13.01 -15.39)"/>
  <path class="cls-1" d="M188.35,252.53a7.13,7.13,0,1,0,0,14.26H200.8a7.13,7.13,0,0,0,0-14.26Z" transform="translate(-13.01 -15.39)"/>
  <path class="cls-1" d="M169.59,259.66a7.13,7.13,0,0,0-7.13-7.13H101.28a7.13,7.13,0,0,0,0,14.26h61.18A7.13,7.13,0,0,0,169.59,259.66Z" transform="translate(-13.01 -15.39)"/>
  <path class="cls-1" d="M216.28,259.66a7.13,7.13,0,0,0,7.13,7.13h23.32a7.13,7.13,0,1,0,0-14.26H223.41A7.13,7.13,0,0,0,216.28,259.66Z" transform="translate(-13.01 -15.39)"/>
  <path class="cls-1" d="M177.46,171.16h24.61a7.13,7.13,0,0,0,0-14.26H177.46a7.13,7.13,0,0,0,0,14.26Z" transform="translate(-13.01 -15.39)"/>
  <path class="cls-1" d="M229.63,171.16H379.78a7.13,7.13,0,1,0,0-14.26H229.63a7.13,7.13,0,0,0,0,14.26Z" transform="translate(-13.01 -15.39)"/>
  <path class="cls-1" d="M357,188.26H296.15a7.13,7.13,0,1,0,0,14.26H357a7.13,7.13,0,0,0,0-14.26Z" transform="translate(-13.01 -15.39)"/>
  <path class="cls-1" d="M273.35,188.26H252.44a7.13,7.13,0,1,0,0,14.26h20.91a7.13,7.13,0,0,0,0-14.26Z" transform="translate(-13.01 -15.39)"/>
  <path class="cls-1" d="M177.46,202.52h51.22a7.13,7.13,0,1,0,0-14.26H177.46a7.13,7.13,0,1,0,0,14.26Z" transform="translate(-13.01 -15.39)"/>
  <path class="cls-1" d="M162.55,282.34h-48a7.13,7.13,0,1,0,0,14.26h48a7.13,7.13,0,0,0,0-14.26Z" transform="translate(-13.01 -15.39)"/>
  <path class="cls-1" d="M92.71,282.34H55.82a7.13,7.13,0,1,0,0,14.26H92.71a7.13,7.13,0,0,0,0-14.26Z" transform="translate(-13.01 -15.39)"/>
  <path class="cls-1" d="M249.59,282.34H186.87a7.13,7.13,0,0,0,0,14.26h62.72a7.13,7.13,0,0,0,0-14.26Z" transform="translate(-13.01 -15.39)"/>
  <path class="cls-1" d="M334.41,245.73h-34.3a7.13,7.13,0,0,0,0,14.26h34.3a7.13,7.13,0,0,0,0-14.26Z" transform="translate(-13.01 -15.39)"/>
  <path class="cls-1" d="M393.93,260h48.41a7.13,7.13,0,1,0,0-14.26H393.93a7.13,7.13,0,1,0,0,14.26Z" transform="translate(-13.01 -15.39)"/>
  <path class="cls-1" d="M369.72,245.73h-11.1a7.13,7.13,0,1,0,0,14.26h11.1a7.13,7.13,0,0,0,0-14.26Z" transform="translate(-13.01 -15.39)"/>
  <path class="cls-1" d="M300.11,337.66h34.3a7.13,7.13,0,0,0,0-14.26h-34.3a7.13,7.13,0,0,0,0,14.26Z" transform="translate(-13.01 -15.39)"/>
  <path class="cls-1" d="M393.93,337.66h48.41a7.13,7.13,0,1,0,0-14.26H393.93a7.13,7.13,0,1,0,0,14.26Z" transform="translate(-13.01 -15.39)"/>
  <path class="cls-1" d="M358.62,337.66h11.1a7.13,7.13,0,0,0,0-14.26h-11.1a7.13,7.13,0,1,0,0,14.26Z" transform="translate(-13.01 -15.39)"/>
  <path class="cls-1" d="M334.41,401.08h-34.3a7.13,7.13,0,0,0,0,14.25h34.3a7.13,7.13,0,1,0,0-14.25Z" transform="translate(-13.01 -15.39)"/>
  <path class="cls-1" d="M442.34,401.08H393.93a7.13,7.13,0,1,0,0,14.25h48.41a7.13,7.13,0,1,0,0-14.25Z" transform="translate(-13.01 -15.39)"/>
  <path class="cls-1" d="M369.72,401.08h-11.1a7.13,7.13,0,1,0,0,14.25h11.1a7.13,7.13,0,0,0,0-14.25Z" transform="translate(-13.01 -15.39)"/>
  <path class="cls-1" d="M468.64,15.39H44.38A31.4,31.4,0,0,0,13,46.76V391.62A31.4,31.4,0,0,0,44.38,423H71.2a7.13,7.13,0,0,0,0-14.26H44.38a17.12,17.12,0,0,1-17.11-17.11v-27H286.93v12.29h-5.65a14,14,0,0,0-14,14v17.84H114.54a7.13,7.13,0,0,0,0,14.26h68.53v25.56H161.55a26.07,26.07,0,0,0-26,26V490a11.89,11.89,0,0,0,11.88,11.88h217.7A11.89,11.89,0,0,0,377,490v-15.4a26.07,26.07,0,0,0-26-26H329.41v-9H461.18a14,14,0,0,0,14-14v-3.35a31.42,31.42,0,0,0,24.28-30.55L500,46.75A31.4,31.4,0,0,0,468.64,15.39ZM281.52,347.61V313.45H460.94v34.16Zm19.67-48.42v-15H441.27v15Zm140.08,62.68v15H301.19v-15ZM197.32,423h69.94v2.53a14,14,0,0,0,14,14h33.88v9H197.32Zm153.62,39.82a11.79,11.79,0,0,1,11.78,11.77v13h-213v-13a11.79,11.79,0,0,1,11.79-11.77Zm110-37.53H281.52V391.12H460.94Zm24.28-33.66a17.12,17.12,0,0,1-10,15.55V390.88a14,14,0,0,0-14-14h-5.65V364.58h29.69Zm0-41.29H475c.15-.81.24-37.12.24-37.12a14,14,0,0,0-14-14h-5.65v-15h5.65a14,14,0,0,0,14-14V235.54a14,14,0,0,0-14-14H420.92a7.13,7.13,0,0,0,0,14.26h40v34.16H281.52V235.78h95.05a7.13,7.13,0,0,0,0-14.26H281.28a14,14,0,0,0-14,14v34.64a14,14,0,0,0,14,14h5.65v15h-5.65a14,14,0,0,0-14,14s.09,36.31.24,37.12H27.27v-238h458Zm0-252.25H27.79V46.75A17.14,17.14,0,0,1,44.9,29.64H468.1a17.14,17.14,0,0,1,17.12,17.12Z" transform="translate(-13.01 -15.39)"/>
  <path class="cls-1" d="M65.57,42.74A20.92,20.92,0,1,0,86.49,63.66,20.94,20.94,0,0,0,65.57,42.74Zm0,27.58a6.66,6.66,0,1,1,6.66-6.66A6.67,6.67,0,0,1,65.57,70.32Z" transform="translate(-13.01 -15.39)"/>
  <path class="cls-1" d="M118.83,42.74a20.92,20.92,0,1,0,20.91,20.92A20.94,20.94,0,0,0,118.83,42.74Zm0,27.58a6.66,6.66,0,1,1,6.66-6.66A6.66,6.66,0,0,1,118.83,70.32Z" transform="translate(-13.01 -15.39)"/>
  <path class="cls-1" d="M172.08,42.74A20.92,20.92,0,1,0,193,63.66,21,21,0,0,0,172.08,42.74Zm0,27.58a6.66,6.66,0,1,1,6.66-6.66A6.67,6.67,0,0,1,172.08,70.32Z" transform="translate(-13.01 -15.39)"/>
</svg>
