<svg id="Laag_1" data-name="Laag 1" xmlns="http://www.w3.org/2000/svg" viewBox="0 0 399 398.2">
  <defs>
    <style>
      .cls-1 {
        fill: #efefef;
      }
    </style>
  </defs>
  <title>globaldrie</title>
  <path class="cls-1" d="M227.63,422.78c30.51-4.33,57.26-36.18,74.09-83.21a362.22,362.22,0,0,0-74.09-8.72Z" transform="translate(-21 -24.58)"/>
  <path class="cls-1" d="M276.38,415.3c1.8-.52,3.6-1,5.38-1.62,1.5-.49,3-1,4.47-1.53,1.76-.6,3.5-1.23,5.24-1.89,1.49-.56,3-1.16,4.43-1.76q2.55-1.06,5.07-2.14c1.47-.64,2.92-1.32,4.38-2q2.47-1.16,4.91-2.38c1.43-.73,2.85-1.47,4.28-2.24q2.4-1.28,4.76-2.63c1.43-.8,2.81-1.61,4.2-2.45l4.61-2.85q2.06-1.31,4.08-2.67c1.51-1,3-2.07,4.46-3.12s2.65-1.9,4-2.85c1.42-1.1,2.89-2.24,4.32-3.38,1.27-1,2.54-2,3.79-3.07,1.42-1.18,2.78-2.4,4.17-3.63,1.21-1.08,2.43-2.14,3.61-3.25,1.36-1.27,2.69-2.58,4-3.89,1.14-1.13,2.31-2.25,3.43-3.41l.63-.68a240.3,240.3,0,0,0-48.87-18.8,177,177,0,0,1-45.57,74l1.73-.43C273.39,416.22,274.89,415.75,276.38,415.3Z" transform="translate(-21 -24.58)"/>
  <path class="cls-1" d="M420,230.81H334.5a369.7,369.7,0,0,1-14.4,98.66A248.61,248.61,0,0,1,374.22,351,199.15,199.15,0,0,0,420,230.81Z" transform="translate(-21 -24.58)"/>
  <path class="cls-1" d="M227.63,216.55h92.61a356.66,356.66,0,0,0-14-95.14,375.78,375.78,0,0,1-78.57,9.37Z" transform="translate(-21 -24.58)"/>
  <path class="cls-1" d="M227.63,24.58v91.94a362.93,362.93,0,0,0,74.09-8.73C284.89,60.76,258.14,28.92,227.63,24.58Z" transform="translate(-21 -24.58)"/>
  <path class="cls-1" d="M227.63,316.59A375.78,375.78,0,0,1,306.2,326a356.68,356.68,0,0,0,14-95.15H227.63Z" transform="translate(-21 -24.58)"/>
  <path class="cls-1" d="M374.22,96.36A248.14,248.14,0,0,1,320.1,117.9a369.63,369.63,0,0,1,14.4,98.65H420A199.35,199.35,0,0,0,374.22,96.36Z" transform="translate(-21 -24.58)"/>
  <path class="cls-1" d="M364.59,85.54c-.21-.21-.41-.44-.62-.66-1.12-1.16-2.29-2.28-3.44-3.41-1.33-1.31-2.65-2.63-4-3.9-1.18-1.1-2.4-2.14-3.62-3.23-1.38-1.23-2.76-2.47-4.18-3.65-1.23-1-2.5-2-3.75-3-1.43-1.15-2.89-2.3-4.36-3.4-1.29-1-2.59-1.92-3.91-2.86-1.49-1.07-3-2.14-4.5-3.16-1.34-.9-2.69-1.77-4-2.63-1.55-1-3.09-2-4.66-2.91-1.37-.82-2.76-1.64-4.15-2.43-1.6-.91-3.2-1.79-4.81-2.66-1.43-.71-2.85-1.49-4.28-2.2-1.64-.83-3.29-1.63-5-2.41q-2.13-1-4.34-2c-1.69-.74-3.4-1.42-5.1-2.13-1.47-.6-2.93-1.19-4.42-1.76-1.73-.66-3.48-1.28-5.24-1.89-1.48-.52-3-1-4.47-1.52-1.78-.58-3.56-1.11-5.39-1.64-1.49-.43-3-.87-4.48-1.27-.57-.16-1.16-.28-1.73-.43a177.06,177.06,0,0,1,45.57,74A239.05,239.05,0,0,0,364.59,85.54Z" transform="translate(-21 -24.58)"/>
  <path class="cls-1" d="M21,216.55h85.5a370,370,0,0,1,14.39-98.65A248.26,248.26,0,0,1,66.78,96.36,199.2,199.2,0,0,0,21,216.55Z" transform="translate(-21 -24.58)"/>
  <path class="cls-1" d="M213.37,422.78V330.85a362.22,362.22,0,0,0-74.09,8.72C156.11,386.6,182.86,418.45,213.37,422.78Z" transform="translate(-21 -24.58)"/>
  <path class="cls-1" d="M213.37,230.81H120.76a356.68,356.68,0,0,0,14,95.15,375.78,375.78,0,0,1,78.57-9.37Z" transform="translate(-21 -24.58)"/>
  <path class="cls-1" d="M213.37,24.58c-30.51,4.34-57.26,36.18-74.09,83.21a361.54,361.54,0,0,0,74.09,8.73Z" transform="translate(-21 -24.58)"/>
  <path class="cls-1" d="M213.37,130.78a375.78,375.78,0,0,1-78.57-9.37,356.66,356.66,0,0,0-14,95.14h92.61Z" transform="translate(-21 -24.58)"/>
  <path class="cls-1" d="M170.85,30.35c-.58.15-1.16.27-1.74.42-1.51.41-3,.86-4.5,1.29-1.79.53-3.57,1-5.36,1.62-1.52.49-3,1-4.5,1.53-1.74.62-3.49,1.23-5.22,1.89-1.49.57-3,1.16-4.43,1.77L140,41c-1.47.65-2.92,1.32-4.38,2-1.65.78-3.29,1.57-4.91,2.39q-2.15,1.09-4.28,2.23c-1.6.86-3.18,1.74-4.76,2.64s-2.83,1.61-4.2,2.45c-1.55.93-3.09,1.89-4.61,2.85s-2.73,1.76-4.08,2.67c-1.51,1-3,2.07-4.46,3.13s-2.65,1.89-3.95,2.85c-1.46,1.1-2.85,2.24-4.32,3.38-1.27,1-2.55,2-3.79,3.07-1.42,1.17-2.78,2.39-4.15,3.61-1.22,1.09-2.45,2.14-3.64,3.27-1.36,1.26-2.68,2.57-4,3.87-1.15,1.14-2.32,2.26-3.45,3.43-.2.21-.4.45-.62.67a238.92,238.92,0,0,0,48.87,18.8A176.9,176.9,0,0,1,170.85,30.35Z" transform="translate(-21 -24.58)"/>
  <path class="cls-1" d="M80.47,365.9c1.33,1.31,2.65,2.63,4,3.9,1.18,1.09,2.4,2.13,3.62,3.23,1.38,1.23,2.76,2.46,4.18,3.65,1.23,1,2.49,2,3.75,3,1.43,1.16,2.85,2.31,4.36,3.42,1.29,1,2.59,1.9,3.9,2.85,1.49,1.07,3,2.14,4.51,3.17,1.34.9,2.69,1.77,4,2.64,1.55,1,3.09,2,4.66,2.9,1.37.83,2.76,1.64,4.15,2.43q2.4,1.36,4.81,2.66c1.42.71,2.85,1.49,4.28,2.2,1.64.83,3.29,1.63,5,2.42q2.13,1,4.34,2c1.69.75,3.39,1.42,5.1,2.13,1.47.6,2.93,1.2,4.42,1.76,1.73.66,3.48,1.28,5.24,1.89,1.48.52,3,1,4.47,1.52,1.78.58,3.56,1.11,5.39,1.64,1.49.43,3,.88,4.47,1.28.58.15,1.17.27,1.74.42a177.06,177.06,0,0,1-45.57-74,239.09,239.09,0,0,0-48.86,18.81c.21.21.41.44.62.66C78.15,363.65,79.31,364.77,80.47,365.9Z" transform="translate(-21 -24.58)"/>
  <path class="cls-1" d="M66.78,351a248.73,248.73,0,0,1,54.11-21.53,370.09,370.09,0,0,1-14.39-98.66H21A199.24,199.24,0,0,0,66.78,351Z" transform="translate(-21 -24.58)"/>
</svg>
