<svg id="Capa_1" data-name="Capa 1" xmlns="http://www.w3.org/2000/svg" viewBox="0 0 1429.81 562.04">
  <defs>
    <style>
      .cls-1 {
        fill: #efefef;
      }
    </style>
  </defs>
  <title>phone</title>
  <g id="visibility">
    <path class="cls-1" d="M885.5,89.25C758,89.25,648.35,168.3,605,280.5c43.35,112.2,153,191.25,280.5,191.25S1122.65,392.7,1166,280.5C1122.65,168.3,1013,89.25,885.5,89.25Zm0,318.75C814.1,408,758,351.9,758,280.5S814.1,153,885.5,153,1013,209.1,1013,280.5,956.9,408,885.5,408Zm0-204c-43.35,0-76.5,33.15-76.5,76.5S842.15,357,885.5,357,962,323.85,962,280.5,928.85,204,885.5,204Z" transform="translate(263.81 1.04)"/>
  </g>
  <path class="cls-1" d="M-243.46,234.93l-18.16,18.16a7.47,7.47,0,0,0,0,10.57,7.45,7.45,0,0,0,5.29,2.19,7.43,7.43,0,0,0,5.28-2.19l23.45-23.45a7.47,7.47,0,0,0,0-10.57L-251,206.19a7.47,7.47,0,0,0-10.57,0,7.48,7.48,0,0,0,0,10.58Z" transform="translate(263.81 1.04)"/>
  <path class="cls-1" d="M401.62-1H165.15a40.91,40.91,0,0,0-40.9,40.94V520.1a40.89,40.89,0,0,0,40.9,40.9H401.62a40.91,40.91,0,0,0,40.9-40.9V39.9A40.93,40.93,0,0,0,401.62-1ZM225,23.83H341.78c3,0,5.34,4.4,5.34,9.85s-2.39,9.87-5.34,9.87H225c-3,0-5.33-4.42-5.33-9.87S222.07,23.83,225,23.83Zm58.37,496.76a26.12,26.12,0,1,1,26.07-26.13A26.15,26.15,0,0,1,283.41,520.59Zm128.47-89.48h-257V68h257Z" transform="translate(263.81 1.04)"/>
</svg>
