<svg id="Layer_5" data-name="Layer 5" xmlns="http://www.w3.org/2000/svg" viewBox="0 0 901.52 562.04">
  <defs>
    <style>
      .cls-1 {
        fill: #efefef;
      }
    </style>
  </defs>
  <title>programmer</title>
  <path class="cls-1" d="M488,440V192a40,40,0,0,0-40-40H400C400,74.07,336.63,9.49,258.74,8c-37.84-.66-74.09,13.92-101.88,41.19A150.13,150.13,0,0,0,112.18,152H64a40,40,0,0,0-40,40V440H8v24a40,40,0,0,0,40,40H464a40,40,0,0,0,40-40V440ZM448,168a24,24,0,0,1,24,24V440H456V184H400V168ZM184,284.69V312H120v16H392V312H328V296h39.06l8.43-67.38L400,212.28V200h40V440H72V200h45.71A143.88,143.88,0,0,0,184,284.69ZM128,155.56a133.94,133.94,0,0,1,40.07-94.93C192.77,36.39,225,23.3,258.45,24,327.67,25.32,384,82.73,384,152v51.72l-23.49,15.66L352.94,280H320a40,40,0,0,1-40-40v-8H264v8a56,56,0,0,0,48,55.36V312H200V275.18l-4.23-2.25A127.89,127.89,0,0,1,128,160ZM40,192a24,24,0,0,1,24-24h48.26a143.68,143.68,0,0,0,1.82,16H56V440H40ZM488,464a24,24,0,0,1-24,24H48a24,24,0,0,1-24-24v-8H488Z" transform="translate(-8 25.02)"/>
  <path class="cls-1" d="M360.22,164.41a30.66,30.66,0,0,0,0-40.82C348.36,110.49,314.45,80,256,80s-92.36,30.49-104.22,43.59a30.66,30.66,0,0,0,0,40.82C163.64,177.51,197.55,208,256,208S348.36,177.51,360.22,164.41ZM208,144a48,48,0,1,1,48,48A48.05,48.05,0,0,1,208,144Zm140.37-9.67a14.7,14.7,0,0,1,0,19.34,116.12,116.12,0,0,1-41,28.39,63.54,63.54,0,0,0,0-76.12A116.12,116.12,0,0,1,348.37,134.33ZM163.63,153.67a14.7,14.7,0,0,1,0-19.34,116.12,116.12,0,0,1,41-28.39,63.54,63.54,0,0,0,0,76.12A116.12,116.12,0,0,1,163.63,153.67Z" transform="translate(-8 25.02)"/>
  <path class="cls-1" d="M256,112h-8v8a8.16,8.16,0,0,1-11.07,7.38l-7.38-3.08-3.08,7.38A32,32,0,1,0,256,112Zm0,48a16,16,0,0,1-16-16,24,24,0,0,0,22.15-14.77A16,16,0,0,1,256,160Z" transform="translate(-8 25.02)"/>
  <path class="cls-1" d="M88,312h16v16H88Z" transform="translate(-8 25.02)"/>
  <path class="cls-1" d="M408,312h16v16H408Z" transform="translate(-8 25.02)"/>
  <path class="cls-1" d="M184,344H88v80h96Zm-16,64H104V360h64Z" transform="translate(-8 25.02)"/>
  <path class="cls-1" d="M200,344H312v16H200Z" transform="translate(-8 25.02)"/>
  <path class="cls-1" d="M232,376h80v16H232Z" transform="translate(-8 25.02)"/>
  <path class="cls-1" d="M200,376h16v16H200Z" transform="translate(-8 25.02)"/>
  <path class="cls-1" d="M296,408h16v16H296Z" transform="translate(-8 25.02)"/>
  <path class="cls-1" d="M200,408h80v16H200Z" transform="translate(-8 25.02)"/>
  <path class="cls-1" d="M328,344h96v16H328Z" transform="translate(-8 25.02)"/>
  <path class="cls-1" d="M408,376h16v16H408Z" transform="translate(-8 25.02)"/>
  <path class="cls-1" d="M328,376h64v16H328Z" transform="translate(-8 25.02)"/>
  <path class="cls-1" d="M328,408h96v16H328Z" transform="translate(-8 25.02)"/>
  <path class="cls-1" d="M432,88h16a32,32,0,0,1,32-32V40A32,32,0,0,1,448,8H432a32,32,0,0,1-32,32V56A32,32,0,0,1,432,88Zm8-53.52A48.35,48.35,0,0,0,453.52,48,48.35,48.35,0,0,0,440,61.52,48.35,48.35,0,0,0,426.48,48,48.35,48.35,0,0,0,440,34.48Z" transform="translate(-8 25.02)"/>
  <path class="cls-1" d="M56,136H72a32,32,0,0,1,32-32V88A32,32,0,0,1,72,56H56A32,32,0,0,1,24,88v16A32,32,0,0,1,56,136Zm8-53.52A48.35,48.35,0,0,0,77.52,96,48.35,48.35,0,0,0,64,109.52,48.35,48.35,0,0,0,50.48,96,48.35,48.35,0,0,0,64,82.48Z" transform="translate(-8 25.02)"/>
  <path class="cls-1" d="M868.62-25H632.15a40.91,40.91,0,0,0-40.9,40.94v480.2a40.89,40.89,0,0,0,40.9,40.9H868.62a40.91,40.91,0,0,0,40.9-40.9V15.92A40.93,40.93,0,0,0,868.62-25ZM692-.16H808.78c3,0,5.34,4.41,5.34,9.86s-2.39,9.87-5.34,9.87H692c-3,0-5.33-4.43-5.33-9.87S689.07-.16,692-.16Zm58.37,496.77a26.12,26.12,0,1,1,26.07-26.13A26.15,26.15,0,0,1,750.41,496.61Zm128.47-89.48h-257V44.06h257Z" transform="translate(-8 25.02)"/>
</svg>
