<svg id="Laag_1" data-name="Laag 1" xmlns="http://www.w3.org/2000/svg" viewBox="0 0 376.41 626.39"><defs><style>.cls-1{fill:#efefef;}</style></defs><title>rocket1</title><path class="cls-1" d="M178.8,435.14A15,15,0,0,0,193,445.42h5.18c-1.38-16.37-2.29-34.74-2.28-55.93,0-1.49.41-2.63.47-4.07H163C170.88,412.66,177.21,430.31,178.8,435.14Z" transform="translate(-68.28 98.7)"/><path class="cls-1" d="M315.94,389.49c0,21.24-.87,39.6-2.2,55.93h7A15,15,0,0,0,335.05,435c2.66-8.32,7.24-21,15.36-49.58H315.47C315.53,386.86,315.94,388,315.94,389.49Z" transform="translate(-68.28 98.7)"/><path class="cls-1" d="M256,340.82c-15.33,0-30,28.42-30,48.67,0,67.75,8.72,107.07,16,128.12a15,15,0,0,0,28.35,0c7.13-20.59,15.63-59.54,15.63-128.1,0-22.27-15.42-48.67-30-48.67Z" transform="translate(-68.28 98.7)"/><path class="cls-1" d="M68.28,364.11v60a15,15,0,0,0,28,7.5c11.86-20.56,24.29-36.66,36.36-43.81a805.49,805.49,0,0,1-23.08-110.89C94.8,280.14,68.28,313.08,68.28,364.11Z" transform="translate(-68.28 98.7)"/><path class="cls-1" d="M434.39,437.37a15,15,0,0,0,10.3-14.23v-60c0-46.46-25.89-80.52-40.66-84.75A856.27,856.27,0,0,1,380.56,389c9.83,6.87,16.94,15.95,37.09,43.09A15,15,0,0,0,434.39,437.37Z" transform="translate(-68.28 98.7)"/><path class="cls-1" d="M225.21,120a45,45,0,1,0,63.64,0A45,45,0,0,0,225.21,120Z" transform="translate(-68.28 98.7)"/><path class="cls-1" d="M265.72-95.07a15,15,0,0,0-19.57,0C218.14-71,195.4-41.82,177.74-8.61,197.13,7,225.08,16.82,255.94,16.82c31.22,0,59.68-10.39,79.16-26.49A310.4,310.4,0,0,0,265.72-95.07Z" transform="translate(-68.28 98.7)"/><path class="cls-1" d="M255.94,46.82c-35.3,0-67.25-10.39-91.32-27.54-37.57,89.81-41.5,207.82-9.54,336.14H203c9.72-23,27.82-44.6,53-44.61s43.28,21.64,53,44.61h49.45c24.5-98.82,37.74-229.14-9.63-337.56C324.44,35.79,291.81,46.82,255.94,46.82Zm75,105a75,75,0,1,1-75-75A75.08,75.08,0,0,1,330.93,151.82Z" transform="translate(-68.28 98.7)"/></svg>