<svg id="Laag_1" data-name="Laag 1" xmlns="http://www.w3.org/2000/svg" viewBox="0 0 509.61 512">
  <defs>
    <style>
      .cls-1 {
        fill: #ededed;
      }

      .cls-2 {
        fill: #efefef;
      }
    </style>
  </defs>
  <title>startup</title>
  <path class="cls-1" d="M193,436.35a12.25,12.25,0,0,0,11.63,8.41h4.24C207.73,431.37,207,416.36,207,399c0-1.22.34-2.15.39-3.32H180.1C186.51,418,191.68,432.41,193,436.35Z" transform="translate(99.29 0)"/>
  <path class="cls-1" d="M305.08,399c0,17.36-.71,32.37-1.79,45.72H309a12.26,12.26,0,0,0,11.68-8.52c2.17-6.8,5.91-17.19,12.55-40.53H304.7C304.75,396.89,305.08,397.82,305.08,399Z" transform="translate(99.29 0)"/>
  <path class="cls-1" d="M256.05,359.26c-12.53,0-24.53,23.23-24.54,39.78,0,55.38,7.13,87.52,13.11,104.72a12.25,12.25,0,0,0,23.16,0c5.83-16.83,12.78-48.67,12.78-104.71,0-18.2-12.6-39.78-24.5-39.78Z" transform="translate(99.29 0)"/>
  <path class="cls-1" d="M102.65,378.3v49a12.26,12.26,0,0,0,22.88,6.13c9.7-16.8,19.86-30,29.73-35.81A657.17,657.17,0,0,1,136.4,307C124.33,309.66,102.65,336.59,102.65,378.3Z" transform="translate(99.29 0)"/>
  <path class="cls-1" d="M401.9,438.18a12.24,12.24,0,0,0,8.42-11.64v-49c0-38-21.16-65.82-33.24-69.28a701,701,0,0,1-19.17,90.41c8,5.61,13.84,13,30.31,35.21A12.23,12.23,0,0,0,401.9,438.18Z" transform="translate(99.29 0)"/>
  <path class="cls-1" d="M230.92,178.77a36.78,36.78,0,1,0,52,0A36.82,36.82,0,0,0,230.92,178.77Z" transform="translate(99.29 0)"/>
  <path class="cls-1" d="M264,3a12.26,12.26,0,0,0-16,0c-22.9,19.69-41.49,43.52-55.92,70.67C208,86.36,230.81,94.43,256,94.43c25.52,0,48.78-8.5,64.7-21.65A253.67,253.67,0,0,0,264,3Z" transform="translate(99.29 0)"/>
  <path class="cls-1" d="M256,119c-28.85,0-55-8.5-74.64-22.52-30.71,73.42-33.92,169.88-7.8,274.76h39.13c7.94-18.79,22.73-36.46,43.32-36.46s35.37,17.69,43.3,36.46h40.42c20-80.77,30.84-187.29-7.87-275.91C312,109.93,285.36,119,256,119Zm61.3,85.82A61.31,61.31,0,1,1,256,143.47,61.39,61.39,0,0,1,317.34,204.77Z" transform="translate(99.29 0)"/>
  <path class="cls-2" d="M-78.94,247.45-97.1,265.61a7.48,7.48,0,0,0,0,10.58,7.51,7.51,0,0,0,5.29,2.19,7.49,7.49,0,0,0,5.29-2.19l23.45-23.45a7.48,7.48,0,0,0,0-10.58l-23.45-23.45a7.48,7.48,0,0,0-10.58,0,7.48,7.48,0,0,0,0,10.58Z" transform="translate(99.29 0)"/>
</svg>
