<svg id="Capa_1" data-name="Capa 1" xmlns="http://www.w3.org/2000/svg" viewBox="0 0 824.81 382.5">
  <defs>
    <style>
      .cls-1 {
        fill: #efefef;
      }
    </style>
  </defs>
  <title>visual</title>
  <g id="visibility">
    <path class="cls-1" d="M280.5,89.25C153,89.25,43.35,168.3,0,280.5,43.35,392.7,153,471.75,280.5,471.75S517.65,392.7,561,280.5C517.65,168.3,408,89.25,280.5,89.25Zm0,318.75C209.1,408,153,351.9,153,280.5S209.1,153,280.5,153,408,209.1,408,280.5,351.9,408,280.5,408Zm0-204c-43.35,0-76.5,33.15-76.5,76.5S237.15,357,280.5,357,357,323.85,357,280.5,323.85,204,280.5,204Z" transform="translate(263.81 -89.25)"/>
  </g>
  <path class="cls-1" d="M-243.46,234.93l-18.16,18.16a7.47,7.47,0,0,0,0,10.57,7.45,7.45,0,0,0,5.29,2.19,7.43,7.43,0,0,0,5.28-2.19l23.45-23.45a7.47,7.47,0,0,0,0-10.57L-251,206.19a7.47,7.47,0,0,0-10.57,0,7.48,7.48,0,0,0,0,10.58Z" transform="translate(263.81 -89.25)"/>
</svg>
